<svg width="390" height="80" viewBox="0 0 390 80" fill="none" xmlns="http://www.w3.org/2000/svg">
<path fill-rule="evenodd" clip-rule="evenodd" d="M260.37 33.3027L273.007 8.39747H273.23L287.197 33.3027H301.56L283.026 1.12149H270.889L254.137 33.3027H260.37ZM61.7265 19.2559L81.5405 19.0316C81.3174 23.5091 78.7575 26.0267 77.4213 27.0916C74.1381 29.6091 69.4624 29.8355 67.2361 29.8355C63.9528 29.8355 61.1116 29.389 58.2202 27.71C56.3837 26.6451 54.2679 24.8528 53.211 23.3435L52.3188 22.0565L45.8629 25.6389C47.7557 27.7645 50.7053 29.8942 53.8239 31.4035C58.6101 33.6968 63.0064 34.2565 68.3492 34.2565C74.0255 34.2565 82.8767 33.4704 89.2763 28.8273C93.729 25.5802 95.7886 21.1593 95.7886 17.2414C95.7886 13.3236 93.729 8.84607 89.2763 5.65562C83.7668 1.62668 75.6974 0.226396 68.516 0.226396C63.8403 0.226396 59.5544 0.674984 55.2143 2.24086C51.5954 3.47134 48.7583 5.15043 45.8629 7.61349L52.3188 11.1393L53.8781 9.51894C55.158 8.11867 57.328 6.83159 59.2771 6.0476C61.8933 4.92822 64.6199 4.59283 67.4591 4.59283C73.1917 4.59283 76.4749 6.38509 78.3114 8.11867C79.5372 9.24015 81.1506 11.3657 81.5405 14.6128L61.7265 14.3319V19.2559ZM325.434 4.14424C328.665 4.14424 332.338 4.81503 335.178 8.34088C337.458 11.1393 337.848 14.3864 337.848 17.2414C337.848 20.0944 337.456 23.2848 335.178 26.1399C332.338 29.6657 328.665 30.3365 325.434 30.3365C322.205 30.3365 318.532 29.6657 315.695 26.1399C313.413 23.2848 313.025 20.0944 313.025 17.2414C313.025 14.3864 313.415 11.1393 315.695 8.34088C318.534 4.81503 322.205 4.14424 325.434 4.14424ZM325.434 34.2565C331.448 34.2565 339.851 32.9128 345.471 28.8273C349.924 25.6368 352.04 21.1027 352.04 17.2414C352.04 13.3781 349.922 8.84607 345.471 5.65562C339.851 1.57218 331.446 0.226396 325.434 0.226396C319.481 0.226396 311.022 1.57218 305.341 5.65562C300.888 8.84607 298.831 13.3802 298.831 17.2414C298.831 21.1027 300.888 25.6368 305.341 28.8273C311.022 32.9128 319.481 34.2565 325.434 34.2565ZM215.066 9.23806C216.401 8.82538 217.789 8.61762 219.185 8.62177H220.69V25.3559H219.185C217.789 25.3599 216.401 25.1521 215.066 24.7396C213.953 24.4042 212.948 23.9556 212.171 23.2848C210.668 22.1089 209.442 20.151 209.442 16.9605C209.442 13.8267 210.668 11.8667 212.171 10.6928C212.948 10.02 213.953 9.57346 215.066 9.23806ZM238.332 29.4414C245.509 28.995 249.295 27.3159 251.3 26.0833C255.082 23.7879 256.81 20.543 256.81 16.9605C256.81 12.2587 253.748 9.46026 251.3 7.89439C247.905 5.71222 243.118 4.81502 238.332 4.53623C237.052 4.42094 235.77 4.42093 234.488 4.42093H233.098V0H220.24V4.42093H218.904C217.624 4.42093 216.344 4.42094 215.064 4.53623C210.222 4.81502 205.435 5.71222 202.094 7.89439C199.644 9.46026 196.584 12.2587 196.584 16.9605C196.584 20.543 198.308 23.7879 202.094 26.0833C204.043 27.3159 207.828 28.995 215.064 29.4414C216.343 29.5115 217.623 29.55 218.904 29.5567H220.24V34.2565H233.098V29.5567H234.488C235.77 29.549 237.052 29.5105 238.332 29.4414ZM238.332 9.23806C239.445 9.57346 240.446 10.02 241.226 10.6928C242.729 11.8667 243.952 13.8267 243.952 16.9605C243.952 20.151 242.729 22.1089 241.226 23.2848C240.446 23.9556 239.445 24.4042 238.332 24.7396C236.978 25.1521 235.571 25.3598 234.157 25.3559H232.71V8.62177H234.157C235.66 8.62177 237.052 8.84607 238.332 9.23806ZM168.257 4.14424C171.43 4.14424 175.159 4.81503 177.998 8.34088C180.281 11.1393 180.671 14.3864 180.671 17.2414C180.671 20.0944 180.281 23.2848 177.998 26.1399C175.159 29.6657 171.43 30.3365 168.257 30.3365C165.03 30.3365 161.301 29.6657 158.461 26.1399C156.179 23.2848 155.845 20.0944 155.845 17.2414C155.845 14.3864 156.179 11.1393 158.461 8.34088C161.301 4.81503 165.03 4.14424 168.257 4.14424ZM168.257 34.2565C174.213 34.2565 182.674 32.9128 188.294 28.8273C192.692 25.6368 194.752 21.1027 194.752 17.2414C194.752 13.3781 192.692 8.84607 188.294 5.65562C182.674 1.57218 174.213 0.226396 168.257 0.226396C162.247 0.226396 153.788 1.57218 148.166 5.65562C143.711 8.84607 141.651 13.3802 141.651 17.2414C141.651 21.1027 143.711 25.6368 148.166 28.8273C153.786 32.9128 162.247 34.2565 168.257 34.2565ZM119.724 21.4947H122.117C128.296 21.4947 132.581 20.8218 135.642 19.0316C139.483 16.7362 140.374 13.6024 140.374 11.1393C140.374 8.73287 139.483 5.59902 135.642 3.41685C132.581 1.68118 128.462 1.12149 121.56 1.12149H99.5762V33.3027H112.432V21.4947H119.724ZM119.724 6.04551C121.283 6.10211 123.286 6.383 124.733 7.27808C126.682 8.50856 127.016 10.1876 127.016 11.1959C127.016 12.2021 126.736 13.9944 124.622 15.2815C123.176 16.2331 121.393 16.5141 119.724 16.6252H112.432V5.99101H118.387C118.777 5.99101 119.223 5.99101 119.724 6.04551ZM20.2079 8.67837L26.6076 19.6479H13.8062L19.8723 8.45407H20.0391L20.2079 8.67837ZM29.2237 24.0122L34.7354 33.3027H49.096L29.6135 1.12149H17.7023L0 33.3027H6.40175L11.4673 24.0122H29.2237ZM349.48 5.99101H363.282V33.3027H376.14V5.99101H390V1.12149H349.48V5.99101ZM376.809 55.1851H374.695L366.234 63.4149L369.073 55.1851H366.903L363.115 66.3832H365.285L373.692 58.101L370.909 66.3832H373.079L376.809 55.1851ZM363.674 55.1851H361.556L360.057 59.5537H354.769L356.271 55.1851H354.101L350.316 66.3832H352.486L354.212 61.1741H359.498L357.718 66.3832H359.945L363.674 55.1851ZM350.87 55.1851H348.757L340.297 63.4149L343.08 55.1851H340.962L337.181 66.3832H339.295L347.754 58.101L344.973 66.3832H347.087L350.87 55.1851ZM331.113 55.1851L329.833 58.3777C329.276 59.8891 329.055 60.3922 328.499 61.566C327.773 63.134 327.05 64.6454 325.157 65.0919L324.821 66.5488C325.935 66.4922 326.773 66.0457 327.327 65.7103C329.497 64.31 330.223 61.9035 331.834 57.9836L332.395 56.6399H335.063L331.834 66.379H333.952L337.735 55.181H331.113V55.1851ZM283.693 61.2327C283.972 61.1762 284.358 61.1762 284.806 61.1762H286.365L285.585 63.526C285.252 63.9767 284.916 64.2555 284.472 64.5364C284.193 64.7041 283.914 64.8152 283.693 64.8676C283.322 65.0227 282.923 65.099 282.521 65.0919C282.077 65.0919 281.523 65.0353 281.187 64.5888C280.908 64.1989 280.908 63.7503 281.074 63.1885C281.241 62.742 281.521 62.2955 282.131 61.8448C282.594 61.516 283.13 61.3059 283.693 61.2327ZM284.862 66.3832H286.751L289.2 59.103C289.592 57.9857 290.036 56.8684 289.423 55.9146C288.923 55.1851 287.699 54.9084 286.697 54.9084C285.417 54.9084 284.47 55.0761 283.691 55.3591C282.077 55.9733 281.354 57.0382 281.3 57.9878L283.19 58.1031C283.275 57.7648 283.448 57.4552 283.691 57.2059C284.191 56.5875 285.027 56.424 286.082 56.424C286.53 56.424 287.084 56.4764 287.307 56.8705C287.641 57.2604 287.474 57.8201 287.307 58.3232L286.863 59.7759H285.25C284.691 59.7759 284.191 59.7759 283.691 59.8325C281.521 60.1155 279.684 61.0085 278.904 63.2996C278.292 65.0353 278.904 66.5509 281.354 66.5509C282.077 66.5509 282.857 66.4943 283.634 66.1002H283.691C284.47 65.7103 285.083 65.1506 285.25 64.9829H285.304L284.862 66.3832ZM320.371 61.2327C320.704 61.1762 321.04 61.1762 321.484 61.1762H323.1L322.264 63.526C321.93 63.9767 321.597 64.2555 321.15 64.5364C320.873 64.7041 320.594 64.8152 320.371 64.8676C319.983 65.0353 319.647 65.0919 319.258 65.0919C318.759 65.0919 318.201 65.0353 317.924 64.5888C317.588 64.1989 317.588 63.7503 317.755 63.1885C317.924 62.742 318.201 62.2955 318.814 61.8448C319.275 61.5151 319.81 61.3049 320.371 61.2327ZM321.54 66.3832H323.489L325.937 59.103C326.272 57.9857 326.716 56.8684 326.103 55.9146C325.603 55.1851 324.382 54.9084 323.377 54.9084C322.153 54.9084 321.15 55.0761 320.371 55.3591C318.759 55.9733 318.09 57.0382 317.98 57.9878L319.871 58.1031C319.958 57.7658 320.13 57.4569 320.371 57.2059C320.93 56.5875 321.707 56.424 322.764 56.424C323.21 56.424 323.765 56.4764 324.046 56.8705C324.323 57.2604 324.211 57.8201 324.046 58.3232L323.544 59.7759H321.93C321.374 59.7759 320.873 59.7759 320.371 59.8325C318.201 60.1155 316.364 61.0085 315.585 63.2996C314.972 65.0353 315.585 66.5509 318.034 66.5509C318.759 66.5509 319.539 66.4943 320.371 66.1002C321.15 65.7103 321.763 65.1506 321.93 64.9829H322.041L321.54 66.3832ZM315.585 55.1851H313.415L305.007 63.4149L307.79 55.1851H305.622L301.837 66.3832H304.009L312.412 58.101L309.629 66.3832H311.799L315.585 55.1851ZM296.938 61.4004C297.33 61.4004 297.663 61.5681 297.884 61.7358C298.162 62.0712 298.162 62.633 297.939 63.1361C297.763 63.6524 297.432 64.1012 296.992 64.4211C296.992 64.4211 296.938 64.4211 296.938 64.4777C296.492 64.7565 295.879 64.8676 295.268 64.8676H292.652L293.824 61.3417H296.55C296.717 61.3438 296.828 61.3438 296.938 61.4004ZM296.938 56.642H298.051C298.443 56.642 298.941 56.642 299.275 56.9774C299.608 57.3715 299.556 57.7593 299.442 58.21C299.275 58.6565 299.052 59.103 298.552 59.4384C297.995 59.8325 297.495 59.8325 296.938 59.8325H294.322L295.435 56.6441H296.938V56.642ZM296.938 66.2155C297.664 65.9912 298.331 65.5971 298.831 65.2617C299.442 64.7586 300.057 64.0333 300.388 63.1361C300.611 62.4653 300.667 61.8469 300.334 61.2893C300.111 60.8953 299.667 60.5599 299.054 60.4509L299.108 60.3943C299.834 60.2266 300.446 59.8325 300.834 59.4405C301.224 59.0506 301.56 58.4343 301.781 57.8767C302.114 56.8705 301.947 56.3087 301.56 55.858C301.001 55.2438 300.111 55.1872 299.385 55.1872H293.767L289.926 66.3853H295.437C295.937 66.3832 296.438 66.3245 296.938 66.2155ZM259.924 56.5854C260.26 56.4743 260.593 56.4219 260.871 56.4219C263.041 56.4219 262.542 58.2687 262.151 59.2707L261.984 59.7738H257.421L257.587 59.2707C258.146 57.5916 259.092 56.8684 259.924 56.5854ZM259.924 61.2327H263.654C265.323 57.2038 265.1 54.9063 261.371 54.9063C260.927 54.9063 260.427 54.9629 259.924 55.074C257.754 55.5771 255.805 57.3715 254.638 60.9539C253.026 65.7124 254.917 66.5509 257.475 66.5509C258.421 66.5509 259.255 66.4356 259.924 66.2155C261.707 65.5971 262.707 64.3687 262.874 63.1361L261.037 62.8531C260.927 63.1885 260.648 63.918 259.924 64.4211C259.48 64.7565 258.867 65.0353 257.977 65.0353C257.308 65.0353 255.638 64.8676 256.585 62.2955L256.918 61.2307H259.924V61.2327ZM253.804 55.1851H251.688L243.229 63.4149L246.012 55.1851H243.898L240.112 66.3832H242.282L250.687 58.101L247.905 66.3832H250.075L253.804 55.1851ZM232.097 55.1851L228.316 66.3832H230.484L232.21 61.3438H234.269C234.659 61.3438 235.159 61.3438 235.382 61.7379C235.493 61.9056 235.603 62.241 235.435 62.8028L235.157 64.3142C234.991 65.0395 234.878 65.8256 235.768 66.2763C236.214 66.4398 236.881 66.555 237.271 66.555L238.165 64.9305C237.997 64.9305 237.83 64.9305 237.663 64.8739C237.219 64.7104 237.271 64.2597 237.329 63.9243L237.44 63.1424C237.496 62.6393 237.721 61.9098 237.496 61.3501C237.386 60.9602 236.94 60.6835 236.496 60.5682V60.5116C236.988 60.4094 237.436 60.1542 237.776 59.7822C238.093 59.4337 238.356 59.0385 238.555 58.6104L238.945 57.8243C239.114 57.4302 239.391 56.8181 239.946 56.5917C240.058 56.5393 240.225 56.4806 240.725 56.4282L240.948 54.9713C240.112 55.0824 239.279 55.0824 238.497 55.6421C237.83 56.1452 237.553 56.8181 237.271 57.3778L236.94 57.992C236.66 58.5538 236.494 58.9982 235.939 59.3357C235.549 59.6711 235.105 59.6711 234.713 59.6711H232.766L234.269 55.1914H232.097V55.1851ZM225.585 64.1423C225.195 64.3666 224.695 64.5364 224.195 64.7041C223.67 64.8537 223.127 64.9278 222.581 64.9242C221.856 64.9242 221.078 64.8676 220.576 64.1989C219.965 63.4128 220.357 62.1802 220.855 60.78C221.247 59.4363 221.689 58.2079 222.469 57.4218C222.915 56.9753 223.582 56.4177 224.751 56.4177C225.531 56.4177 225.975 56.6378 226.198 57.0319C226.477 57.4784 226.31 57.9815 225.975 58.711L228.034 58.5433C228.814 57.3107 228.703 56.0781 227.811 55.464C227.255 55.0699 226.423 54.9022 225.531 54.9022C224.418 54.9022 223.081 55.181 221.968 55.8517C219.911 57.0843 218.906 59.3231 218.462 60.7234C218.07 61.8993 217.516 64.0815 218.629 65.4231C219.352 66.3769 220.517 66.5446 221.799 66.5446C222.633 66.5446 223.359 66.488 224.303 66.2092C224.803 65.9849 225.36 65.7585 225.918 65.4797L225.585 64.1423ZM215.9 50.3177C215.786 50.6243 215.594 50.8954 215.343 51.1038C214.954 51.4392 214.341 51.6027 213.951 51.6027C213.561 51.6027 213.005 51.4392 212.894 51.1038C212.727 50.8795 212.781 50.6007 212.894 50.3177H211.335C210.943 51.1562 211.001 51.9968 211.502 52.4475C212.002 52.9506 212.894 53.0093 213.451 53.0093C214.118 53.0093 214.956 52.9527 215.844 52.4475C216.68 51.9968 217.234 51.1583 217.455 50.3177H215.9ZM217.57 55.1851H215.454L206.997 63.4149L209.778 55.1851H207.664L203.878 66.3832H206.05L214.453 58.101L211.67 66.3832H213.843L217.57 55.1851ZM204.435 55.1851H202.321L193.86 63.4149L196.645 55.1851H194.529L190.741 66.3832H192.859L201.264 58.101L198.481 66.3832H200.651L204.435 55.1851ZM188.406 64.1423C187.938 64.3635 187.454 64.5512 186.96 64.7041C186.416 64.8573 185.854 64.9314 185.29 64.9242C184.621 64.9242 183.787 64.8676 183.341 64.1989C182.784 63.4128 183.118 62.1802 183.62 60.78C184.064 59.4363 184.51 58.2079 185.29 57.4218C185.567 57.1022 185.909 56.8468 186.293 56.6734C186.678 56.5 187.095 56.4128 187.516 56.4177C188.294 56.4177 188.74 56.6378 189.017 57.0319C189.24 57.4784 189.074 57.9815 188.796 58.711L190.8 58.5433C191.579 57.3107 191.523 56.0781 190.633 55.464C190.076 55.0699 189.186 54.9022 188.294 54.9022C187.181 54.9022 185.845 55.181 184.733 55.8517C182.674 57.0843 181.727 59.3231 181.227 60.7234C180.837 61.8993 180.281 64.0815 181.394 65.4231C182.117 66.3769 183.341 66.5446 184.567 66.5446C185.4 66.5446 186.178 66.488 187.07 66.2092C187.516 65.9849 188.127 65.7585 188.63 65.4797L188.406 64.1423ZM177.442 64.1423C176.941 64.3666 176.495 64.5364 175.995 64.7041C175.452 64.8573 174.889 64.9314 174.325 64.9242C173.656 64.9242 172.822 64.8676 172.374 64.1989C171.765 63.4128 172.153 62.1802 172.653 60.78C173.043 59.4363 173.487 58.2079 174.323 57.4218C174.595 57.0972 174.936 56.8384 175.321 56.6646C175.706 56.4907 176.125 56.4064 176.547 56.4177C177.273 56.4177 177.771 56.6378 177.994 57.0319C178.217 57.4784 178.104 57.9815 177.771 58.711L179.83 58.5433C180.61 57.3107 180.498 56.0781 179.664 55.464C179.107 55.0699 178.217 54.9022 177.325 54.9022C176.212 54.9022 174.878 55.181 173.764 55.8517C171.705 57.0843 170.758 59.3231 170.258 60.7234C169.868 61.8993 169.312 64.0815 170.425 65.4231C171.148 66.3769 172.372 66.5446 173.598 66.5446C174.431 66.5446 175.211 66.488 176.101 66.2092C176.547 65.9849 177.16 65.7585 177.66 65.4797L177.442 64.1423ZM163.027 56.7531C163.414 56.5854 163.917 56.4219 164.53 56.4219C165.42 56.4219 165.864 56.8118 166.033 57.1472C166.477 57.9857 166.087 59.2183 165.92 59.7759L165.197 61.7379C165.028 62.2997 164.584 63.5281 163.637 64.3142C163.471 64.4819 163.304 64.593 163.027 64.7607C162.637 64.9284 162.191 65.0961 161.578 65.0961C160.634 65.0961 160.188 64.7062 160.021 64.3142C159.631 63.5281 160.021 62.2997 160.188 61.7379L160.857 59.7759C161.076 59.2183 161.524 57.9857 162.468 57.1472C162.637 57.0361 162.804 56.8684 163.027 56.7531ZM165.03 54.9063C164.307 54.9063 163.64 55.0216 163.027 55.1851C162.247 55.4681 161.578 55.8559 160.967 56.3632C159.408 57.5916 158.628 59.3273 158.184 60.78C157.684 62.1278 157.238 63.8635 157.961 65.1485C158.461 65.987 159.408 66.5488 161.078 66.5488C161.801 66.5488 162.47 66.4922 163.027 66.27C163.861 66.0457 164.53 65.6516 165.14 65.1485C166.7 63.8635 167.479 62.1278 167.98 60.78C168.426 59.3273 168.816 57.5916 168.092 56.3632C167.646 55.5205 166.7 54.9063 165.03 54.9063ZM154.121 52.0534H155.512C156.235 52.0534 157.071 52.2777 157.405 52.7242C157.628 52.9485 158.017 53.5061 157.628 54.6276C157.238 55.8035 156.514 56.4743 156.179 56.6986C155.458 57.2562 154.732 57.4805 154.121 57.4805C153.955 57.5371 153.788 57.5371 153.619 57.5371H150.448L152.285 52.0513H154.121V52.0534ZM154.121 59.3294C155.518 59.2451 156.856 58.7388 157.961 57.8767C159.018 57.1472 159.91 55.9146 160.354 54.6297C160.634 53.7325 160.857 52.2798 159.854 51.2715C158.851 50.3177 157.405 50.2066 156.068 50.2066H150.559L145.103 66.3832H147.499L149.835 59.386H153.285C153.508 59.386 153.786 59.386 154.121 59.3294ZM390 55.1851H387.83L379.425 63.4149L382.208 55.1851H380.038L376.252 66.3832H378.42L386.825 58.101L384.042 66.3832H386.212L390 55.1851ZM21.319 71.8124L16.6996 69.7979L35.8464 67.4439C36.18 68.0056 36.5156 68.5087 36.9075 69.0118L21.319 71.8124ZM72.6935 71.8124L77.3129 69.6826L58.2765 67.3894C58.1098 68.0035 57.6095 68.5066 57.2759 69.0097L72.6935 71.8124ZM69.9106 72.1478L64.1217 74.1056L55.8834 71.5881L55.1601 71.3638C55.4394 71.1437 55.6625 70.9173 55.8834 70.6385C56.217 70.3555 56.4963 69.9677 56.8298 69.6847L69.9106 72.1478ZM85.2156 66.7186L79.9291 69.1795L58.7789 66.7186L59.2792 65.203L85.2156 66.7186ZM87.1084 65.9891L94.0104 61.5681H56.6068C56.6068 63.1361 56.3858 64.4798 55.8834 65.6537C54.4367 69.4038 50.82 71.194 47.2012 71.1395C43.6386 71.0242 40.0219 69.1774 38.4063 65.7648C37.8076 64.4483 37.5037 63.0157 37.5162 61.5681H0L6.84785 65.9891L35.5108 64.4777C36.0674 66.5488 37.0701 68.3389 38.4042 69.6805C40.6868 72.087 43.9721 73.4307 47.1991 73.4307C50.3718 73.4873 53.6008 72.3134 55.8813 69.7371C57.1071 68.3934 58.0535 66.6578 58.6101 64.5867L87.1084 65.9891ZM55.8834 77.4093L56.6068 78.753L55.8834 79.0884L53.9364 79.9814L51.7101 75.5646C50.2582 76.0722 48.7376 76.3535 47.2012 76.3989C45.5428 76.4646 43.8858 76.239 42.3045 75.7323L40.4117 79.9814C39.7988 80.038 38.9629 79.9814 38.4063 79.5915C38.087 79.4063 37.8488 79.1069 37.7392 78.753L38.4063 77.6315L40.0219 74.7198C39.5195 74.3844 39.0755 74.1622 38.6294 73.7157L39.9656 72.0912C42.2482 73.4915 44.7518 74.2733 47.2012 74.2733C49.6505 74.3299 52.0999 73.548 54.3804 71.9235L55.8834 72.37L56.4963 72.5943C56.2732 72.762 56.1065 72.9297 55.8834 73.0974C55.4394 73.548 55.0496 73.9945 54.3262 74.3823L55.8834 77.4093ZM55.8834 54.5185C57.3301 56.2542 58.3891 58.3798 58.9457 60.8407H56.5526C56.3876 60.115 56.1638 59.4041 55.8834 58.7152C54.27 54.4619 50.9868 51.4392 47.2012 48.9216C46.7009 48.6386 46.2548 48.3033 45.7545 48.0203C46.2548 48.1922 46.7009 48.3598 47.2012 48.5275C50.6532 49.9236 53.7134 51.827 55.8834 54.5185ZM49.4275 70.301C50.2515 70.1348 51.0302 69.7916 51.7101 69.2948L47.9245 61.7379L51.8769 59.8346L48.5374 56.9229L47.1991 57.5413L41.4665 60.17L43.1362 63.9767L45.8629 62.7441L49.4275 70.301ZM39.0755 71.3617C38.8524 71.194 38.6294 70.9718 38.4063 70.7999C37.9921 70.4516 37.6186 70.0571 37.2931 69.6239L24.2228 72.11L29.7845 73.9883L39.0755 71.3617ZM35.5129 66.7186C35.3017 66.2233 35.116 65.7174 34.9563 65.203L8.79693 66.7186L14.0834 69.2948L35.5129 66.7186Z" fill="#387DE6"/>
</svg>
