<svg width="300" height="330" viewBox="0 0 300 330" fill="none" xmlns="http://www.w3.org/2000/svg">
<g opacity="0.1">
<path d="M294.003 33.7518C289.168 28.0725 282.118 24.8166 274.661 24.8166H250.183V17.1671C250.183 7.70138 242.473 0 232.999 0H67.0027C57.5271 0 49.8195 7.70138 49.8195 17.1664V24.8159H25.3388C17.881 24.8159 10.8304 28.0725 5.99679 33.7511C1.21244 39.371 -0.855393 46.7524 0.324955 54.002C6.757 93.5138 31.647 128.42 66.9719 147.567C70.1995 155.32 73.8549 162.663 77.9255 169.504C90.9278 191.362 107.092 206.468 124.884 213.774C126.687 231.988 114.556 249.242 96.2863 253.354C96.2473 253.363 96.2199 253.377 96.1816 253.385C92.6159 254.237 89.9617 257.433 89.9617 261.256V298.418H74.9175C61.5047 298.418 50.5928 309.319 50.5928 322.719V341.899C50.5928 346.374 54.2228 350 58.7012 350H242.074C246.553 350 250.183 346.374 250.183 341.899V322.719C250.183 309.319 239.271 298.418 225.858 298.418H210.812V261.256C210.812 257.426 208.148 254.225 204.573 253.381C204.54 253.373 204.507 253.362 204.474 253.354C186.066 249.215 173.912 231.787 175.905 213.436C193.386 206.012 209.267 191.041 222.078 169.506C226.149 162.664 229.803 155.32 233.032 147.566C268.354 128.418 293.243 93.5124 299.675 54.002C300.855 46.7524 298.788 39.3717 294.003 33.7518ZM16.3312 51.4009C15.9097 48.8121 16.6261 46.2712 18.3491 44.2464C20.0973 42.1929 22.6442 41.0157 25.3381 41.0157H49.8189V55.9194C49.8189 79.2888 52.8043 101.925 58.4624 122.627C36.2267 105.073 20.9171 79.5725 16.3312 51.4009ZM225.858 314.62C230.329 314.62 233.966 318.254 233.966 322.72V333.8H66.809V322.72C66.809 318.254 70.4466 314.62 74.9175 314.62H225.858ZM194.595 269.357V298.419H106.18V269.357H194.595ZM127.445 253.156C129.449 250.953 131.281 248.563 132.92 246.006C138.324 237.571 141.16 227.989 141.287 218.202C144.167 218.593 147.074 218.803 150.005 218.803C153.195 218.803 156.355 218.558 159.484 218.095C159.669 231.247 164.792 243.695 173.408 253.156H127.445V253.156ZM233.965 55.9201C233.965 95.8277 224.792 133.227 208.136 161.227C192.267 187.908 171.621 202.602 150.004 202.602C128.384 202.602 107.737 187.909 91.8653 161.229C75.209 133.228 66.0358 95.8284 66.0358 55.9215V17.1664C66.0358 16.6332 66.4696 16.2005 67.002 16.2005H232.997C233.531 16.2005 233.965 16.6339 233.965 17.1664V55.9201ZM283.669 51.4009C279.083 79.5705 263.775 105.07 241.54 122.625C247.197 101.924 250.183 79.2888 250.183 55.9201V41.0164H274.661C277.355 41.0164 279.902 42.1942 281.65 44.2471C283.373 46.2712 284.09 48.8121 283.669 51.4009Z" fill="white"/>
<path d="M199.226 83.1648C198.272 80.2336 195.735 78.0966 192.681 77.6523L168.213 74.1003L157.271 51.9505C155.904 49.186 153.086 47.4353 150 47.4353C146.913 47.4353 144.095 49.186 142.729 51.9505L131.787 74.1003L107.319 77.6523C104.265 78.0953 101.728 80.2329 100.774 83.1655C99.8205 86.0988 100.616 89.3172 102.826 91.4698L120.531 108.711L116.351 133.056C115.829 136.095 117.079 139.166 119.576 140.979C122.073 142.791 125.384 143.029 128.115 141.595L150 130.102L171.884 141.595C173.071 142.218 174.366 142.525 175.656 142.525C177.336 142.525 179.01 142.003 180.422 140.978C182.92 139.165 184.17 136.094 183.648 133.055L179.468 108.71L197.173 91.4691C199.384 89.3172 200.18 86.0981 199.226 83.1648ZM165.098 100.082C163.186 101.942 162.314 104.624 162.766 107.252L164.888 119.618L153.772 113.78C152.592 113.159 151.295 112.85 149.999 112.85C148.703 112.85 147.407 113.16 146.226 113.78L135.111 119.618L137.233 107.252C137.685 104.624 136.812 101.943 134.901 100.082L125.909 91.3249L138.337 89.5202C140.977 89.1374 143.261 87.4797 144.442 85.0891L150 73.8385L155.558 85.0891C156.739 87.4797 159.021 89.1367 161.663 89.5202L174.09 91.3249L165.098 100.082Z" fill="white"/>
</g>
</svg>
